<svg width="129" height="129" viewBox="0 0 129 129" fill="none" xmlns="http://www.w3.org/2000/svg">
<path d="M0.827133 16.4394C0.827133 10.8389 0.827133 8.0386 1.91707 5.89949C2.8758 4.01787 4.40561 2.48806 6.28723 1.52933C8.42635 0.439392 11.2266 0.439392 16.8271 0.439392H64.8271V64.4394H0.827133V16.4394Z" fill="#EED9B6"/>
<path d="M64.8271 0.439392H112.827C118.428 0.439392 121.228 0.439392 123.367 1.52933C125.249 2.48806 126.778 4.01787 127.737 5.89949C128.827 8.0386 128.827 10.8389 128.827 16.4394V64.4394H64.8271V0.439392Z" fill="#B18864"/>
<path d="M64.8271 64.4394H128.827V112.439C128.827 118.04 128.827 120.84 127.737 122.979C126.778 124.861 125.249 126.391 123.367 127.349C121.228 128.439 118.428 128.439 112.827 128.439H64.8271V64.4394Z" fill="#EED9B6"/>
<path d="M0.827133 64.4394H64.8271V128.439H16.8271C11.2266 128.439 8.42635 128.439 6.28723 127.349C4.40561 126.391 2.8758 124.861 1.91707 122.979C0.827133 120.84 0.827133 118.04 0.827133 112.439V64.4394Z" fill="#B18864"/>
<path d="M63.2706 54.178C49.4359 55.6321 37.0412 58.6164 28.0202 62.305L30.4538 85.4585C40.0445 87.191 52.7888 87.533 66.6235 86.0789C82.4577 84.4146 96.4045 80.7461 105.566 76.3113L103.393 55.6361C93.5096 53.2026 79.1048 52.5137 63.2706 54.178Z" fill="#8F1E1C"/>
<path d="M105.624 70.9141C105.1 69.8361 104.87 68.4267 105.07 67.0234C105.428 64.5111 107.027 62.9713 108.642 63.5842C109.042 63.7362 109.406 64.0066 109.721 64.3652C109.746 64.3625 109.772 64.36 109.797 64.359C109.797 64.359 115.066 69.4483 111.426 76.5144C111.372 76.8994 104.396 86.9995 102.586 87.4878C101.402 87.8074 103.157 77.8645 105.624 70.9141Z" fill="#8F1E1C"/>
<path d="M28.6857 77.8934C29.1364 76.8227 29.1863 75.4193 28.7266 74.0185C27.9034 71.5106 25.7595 69.962 23.9381 70.5599C23.4863 70.7081 23.0971 70.9747 22.7794 71.3296C22.7491 71.3266 22.7188 71.324 22.6889 71.3229C22.6889 71.3229 17.2359 76.3539 22.6801 83.4296C22.806 83.8139 32.6952 93.9423 34.9221 94.4441C36.3795 94.7725 32.7179 84.8439 28.6857 77.8934Z" fill="#8F1E1C"/>
<path d="M20.4485 79.4016L20.4494 79.4031C20.4704 79.4163 20.4899 79.4281 20.4485 79.4016Z" fill="#E33A25"/>
<path d="M113.752 61.608C113.625 61.2957 113.499 60.9836 113.371 60.6745L116.104 55.6637C116.383 55.1539 116.386 54.5292 116.114 54.0098C115.843 53.4931 115.335 53.1555 114.771 53.1191L109.221 52.7669C108.964 52.3579 108.698 51.9566 108.432 51.5587L110.171 46.0731C110.351 45.5137 110.236 44.898 109.872 44.446C109.51 43.9915 108.952 43.7624 108.391 43.8438L102.878 44.6265C102.552 44.2835 102.222 43.9444 101.887 43.6127L102.568 37.8571C102.636 37.2726 102.411 36.6922 101.97 36.3192C101.531 35.9475 100.939 35.8369 100.407 36.0284L95.1553 37.9201C94.7738 37.6483 94.3868 37.3811 93.9965 37.1203L93.5841 31.3284C93.5435 30.7419 93.2128 30.2154 92.711 29.9405C92.2094 29.6633 91.6107 29.6764 91.1251 29.9726L86.3476 32.8919C85.9181 32.7022 85.4868 32.5148 85.0518 32.3356L83.5654 26.7414C83.4148 26.1747 82.9926 25.7244 82.4498 25.5554C81.9087 25.3851 81.3231 25.52 80.9047 25.9099L76.7748 29.7451C76.3179 29.6448 75.8597 29.5509 75.3965 29.4638L72.8973 24.2734C72.643 23.7445 72.1474 23.3883 71.583 23.3329C71.0205 23.2782 70.474 23.5284 70.137 23.9951L66.8069 28.6139C66.345 28.6093 65.8835 28.6093 65.4213 28.618L61.9916 24.0146C61.644 23.5483 61.0909 23.3004 60.529 23.3595C59.9684 23.4184 59.4779 23.776 59.2373 24.3041L56.8386 29.52C56.3847 29.6077 55.9311 29.7038 55.4811 29.8043L51.2632 25.9788C50.8362 25.5924 50.2475 25.4615 49.7106 25.6318C49.1703 25.8046 48.7588 26.2548 48.6211 26.8249L47.2539 32.4217C46.8203 32.603 46.3916 32.7914 45.9644 32.9834L41.1289 30.0905C40.6371 29.7952 40.0363 29.7851 39.5412 30.0653C39.0477 30.3432 38.7269 30.8716 38.6979 31.4572L38.4064 37.2382C38.0185 37.5039 37.6353 37.7755 37.2537 38.0519L31.9742 36.1896C31.438 36 30.8473 36.1128 30.4165 36.4879C29.9834 36.8611 29.7688 37.4449 29.8514 38.027L30.6509 43.7782C30.3244 44.1143 30.0023 44.4561 29.6839 44.8014L24.1552 44.0428C23.5935 43.9674 23.0376 44.1975 22.6847 44.6524C22.3295 45.1091 22.2307 45.7236 22.4189 46.2811L24.2793 51.7695C24.0231 52.1649 23.7703 52.5638 23.5239 52.9669L17.9687 53.3475C17.4083 53.3897 16.9046 53.7247 16.6437 54.2447C16.382 54.7624 16.4 55.3883 16.6889 55.8985L19.5328 60.9024C19.3544 61.347 19.1778 61.7949 19.0102 62.2484L13.6546 63.7469C13.1104 63.8985 12.6841 64.3341 12.5254 64.8974C12.3683 65.4619 12.5027 66.0722 12.8796 66.5131L16.5962 70.8459C16.5799 70.9309 16.5658 71.0166 16.5498 71.102L14.9753 73.1708L20.4482 79.4016C20.4482 79.4016 68.4004 95.6917 108.644 70.4927C113.398 69.1138 113.752 61.608 113.752 61.608Z" fill="#E43A25"/>
<path d="M72.9078 62.0602C72.9078 62.0602 77.3867 55.9864 83.0306 60.9963C83.0306 60.9963 87.7843 67.9681 84.1956 72.0805C84.1956 72.0805 78.2318 77.9372 74.0728 73.1445C74.0728 73.1445 69.3072 69.536 72.9078 62.0602Z" fill="#030404"/>
<path d="M78.9838 63.5001C79.2106 65.6582 78.1225 67.5414 76.5536 67.7063C74.9851 67.8711 73.5292 66.2553 73.3024 64.0973C73.0756 61.9394 74.1637 60.0559 75.7322 59.8911C77.3011 59.7262 78.757 61.3422 78.9838 63.5001Z" fill="white"/>
<path d="M50.1589 62.9212C50.1589 62.9212 58.437 58.1645 61.7085 66.4956C61.7085 66.4956 65.2418 76.2355 55.6892 77.8102C55.6892 77.8102 43.184 76.7377 50.1589 62.9212Z" fill="#030404"/>
<path d="M54.9096 66.1737C55.1434 68.399 54.0215 70.3417 52.4033 70.5118C50.7856 70.6818 49.284 69.0148 49.0501 66.7895C48.8161 64.5637 49.9385 62.6214 51.5561 62.4514C53.1743 62.2813 54.6756 63.9479 54.9096 66.1737Z" fill="white"/>
<path d="M22.0571 80.4172C23.072 78.9862 25.7056 77.1055 25.2842 75.16C24.53 71.6767 21.3375 69.4118 18.1538 70.1013C17.3642 70.2723 16.6496 70.6092 16.0324 71.072C15.9827 71.0658 15.9329 71.06 15.8833 71.0564C15.8833 71.0564 5.55355 77.5479 12.8859 87.593C13.0012 88.1268 26.9914 102.652 30.58 103.493C32.9288 104.043 27.0664 90.1927 22.0571 80.4172Z" fill="#E43A25"/>
<path d="M110.496 70.6391C109.044 69.6547 105.419 69.0031 105.131 67.0335C104.617 63.5068 106.812 60.2663 110.036 59.7959C110.835 59.6791 111.623 59.7442 112.363 59.9612C112.407 59.938 112.452 59.915 112.497 59.8943C112.497 59.8943 124.447 62.3522 121.101 74.3305C121.18 74.8708 113.171 93.3789 110.105 95.4246C108.099 96.7635 109.232 81.5503 110.496 70.6391Z" fill="#E43A25"/>
<path d="M30.3763 79.1542C30.3763 79.1542 31.7476 93.5994 46.2272 95.3329L48.5531 89.0992C48.5531 89.0992 38.4105 91.1674 36.2856 78.5331L30.3763 79.1542Z" fill="#E43A25"/>
<path d="M102.394 71.5849C102.394 71.5849 104.055 85.9995 90.2527 90.7057L86.6816 85.0918C86.6816 85.0918 97.0326 85.006 96.4842 72.206L102.394 71.5849Z" fill="#E43A25"/>
<path d="M93.7251 87.3762C91.0561 82.456 83.9737 81.1356 77.9061 84.427C72.5653 87.3241 69.7953 92.8275 71.0274 97.4599C75.4288 96.928 80.1276 96.1452 84.6605 94.9944C84.6605 94.9944 82.4064 99.6691 78.8131 103.92C81.573 104.331 84.6865 103.809 87.571 102.244C93.6387 98.953 96.394 92.2962 93.7251 87.3762Z" fill="#E43A25"/>
<path d="M55.0403 97.8596C55.0403 97.8596 60.9228 98.0165 68.875 97.3784C69.0449 92.312 64.7069 87.425 58.457 86.015C51.5523 84.4573 44.931 87.7333 43.6679 93.3322C42.4047 98.931 46.9782 104.733 53.8829 106.29C56.9437 106.981 59.9482 106.721 62.4556 105.73C58.1729 102.301 55.0403 97.8596 55.0403 97.8596Z" fill="#E43A25"/>
</svg>
