<svg xmlns="http://www.w3.org/2000/svg" width="41" height="40" fill="none"><rect width="40" height="40" x=".011" fill="url(#a)" rx="8"/><g filter="url(#b)"><path fill="#fff" d="M20.012 6.5C12.277 6.5 6.01 12.7 6.01 20.343c0 6.118 4.011 11.304 9.57 13.134.703.13.957-.298.957-.668 0-.329-.008-1.198-.014-2.352-3.896.834-4.717-1.86-4.717-1.86-.638-1.596-1.558-2.024-1.558-2.024-1.267-.856.1-.837.1-.837 1.404.094 2.142 1.423 2.142 1.423 1.25 2.117 3.277 1.505 4.079 1.148.122-.892.487-1.505.885-1.847-3.108-.346-6.377-1.536-6.377-6.84 0-1.514.543-2.748 1.44-3.717-.155-.347-.63-1.757.123-3.663 0 0 1.172-.37 3.85 1.42a13.668 13.668 0 0 1 3.5-.469 13.7 13.7 0 0 1 3.5.468c2.663-1.789 3.834-1.42 3.834-1.42.752 1.907.278 3.317.141 3.664.888.97 1.43 2.204 1.43 3.717 0 5.316-3.272 6.488-6.384 6.827.487.414.943 1.266.943 2.56 0 1.85-.017 3.342-.017 3.793 0 .36.245.792.966.653 5.6-1.81 9.607-7.001 9.607-13.111 0-7.642-6.266-13.842-14-13.842z"/></g><rect width="37.9" height="37.9" x="1.061" y="1.05" stroke="#fff" stroke-opacity=".15" stroke-width="2.1" rx="6.95"/><defs><linearGradient id="a" x1="20.011" x2="20.011" y1="0" y2="40" gradientUnits="userSpaceOnUse"><stop stop-color="#181F29"/><stop offset="1" stop-color="#0F131A"/></linearGradient><filter id="b" width="36" height="36" x="2.011" y="2" color-interpolation-filters="sRGB" filterUnits="userSpaceOnUse"><feFlood flood-opacity="0" result="BackgroundImageFix"/><feColorMatrix in="SourceAlpha" result="hardAlpha" values="0 0 0 0 0 0 0 0 0 0 0 0 0 0 0 0 0 0 127 0"/><feOffset/><feGaussianBlur stdDeviation="2"/><feComposite in2="hardAlpha" operator="out"/><feColorMatrix values="0 0 0 0 0 0 0 0 0 0 0 0 0 0 0 0 0 0 0.25 0"/><feBlend in2="BackgroundImageFix" result="effect1_dropShadow_2_1290"/><feBlend in="SourceGraphic" in2="effect1_dropShadow_2_1290" result="shape"/></filter></defs><script xmlns=""/></svg>