<svg width="327" height="327" viewBox="0 0 327 327" fill="none" xmlns="http://www.w3.org/2000/svg">
<rect width="327" height="327" fill="white"/>
<path fill-rule="evenodd" clip-rule="evenodd" d="M105.282 48.9977C106.938 47.1222 110.543 44.2089 113.292 42.525C118.96 39.0527 121.631 38.4978 122.647 40.5792C124.103 43.5666 120.894 85.9115 117.86 103.746C116.191 113.554 113.887 127.984 112.739 135.814C111.591 143.644 109.369 156.035 107.8 163.349C104.018 180.988 98.5829 214.119 97.6089 225.474C96.6882 236.2 97.0124 241.454 98.7568 244.125C99.9726 245.985 100.206 245.864 104.165 241.327C106.44 238.719 113.571 228.67 120.011 218.997C126.451 209.324 134.224 198.427 137.284 194.78C147.403 182.726 158.829 175.448 169.044 174.554C173.357 174.177 174.434 174.549 178.824 177.939C185.03 182.729 193.634 196.906 202.617 217.135C210.435 234.745 211.764 236.739 210.301 228.664C208.574 219.132 205.601 160.871 206.196 148.216C207.184 127.18 212.983 80.1334 217.179 59.1027C218.632 51.8224 218.797 51.5488 223.513 48.6288C226.175 46.9794 229.74 44.1892 231.434 42.4269C235.084 38.6313 237.891 38.4861 237.814 42.0975C237.786 43.4572 235.821 55.5815 233.449 69.0395C228.014 99.8714 227.637 103.361 226.246 135.614C224.564 174.616 224.89 190.037 227.752 206.929C234.098 244.384 235.621 269.958 232.061 279.329C228.282 289.278 217.813 298.356 214.057 294.943C212.309 293.356 201.261 270.677 189.282 244.091C174.473 211.218 165.06 197.014 156.679 194.89C149.816 193.151 143.384 200.085 124.227 229.872C111.61 249.493 105.356 256.702 95.2413 263.284C89.2056 267.212 86.1592 267.856 82.7983 265.916C76.6504 262.365 75.6049 247.788 79.7536 223.462C81.2291 214.809 83.4837 201.087 84.7631 192.97C87.5677 175.173 93.3661 144.829 97.8334 124.57C102.799 102.049 104.091 88.4466 103.109 69.0132L102.271 52.4091L105.282 48.9977Z" fill="#DC4067"/>
</svg>
